
<svg xmlns="http://www.w3.org/2000/svg" version="1.1" xmlns:xlink="http://www.w3.org/1999/xlink" preserveAspectRatio="none" x="0px" y="0px" width="1124px" height="1124px" viewBox="0 0 1124 1124">
<defs>
<image id="Banner_landing_1_png" x="0" y="0" width="1125" height="520" xlink:href="./images/Banner_landing_1_png.png"/>

<g id="calculotasa_0_Layer0_0_FILL">
<path fill="#CCCCCC" stroke="none" d="
M 73.05 301
Q 69.4 304.65 69.4 309.85 69.4 315.05 73.05 318.7 76.7 322.35 81.9 322.35
L 184.9 322.35
Q 190.1 322.35 193.75 318.7 197.4 315.05 197.4 309.85 197.4 304.65 193.75 301 190.1 297.35 184.9 297.35
L 81.9 297.35
Q 76.7 297.35 73.05 301 Z"/>
</g>

<g id="empresadrill_btn_0_Layer0_0_FILL">
<path fill="#CCCCCC" stroke="none" d="
M 0 26.4
L 27.4 26.4 27.4 0 0 0 0 26.4 Z"/>
</g>

<g id="empresadrill_btn_0_Layer0_1_FILL">
<path fill="#666666" stroke="none" d="
M 9.25 13.25
L 9.45 13.7 14.4 4.5 4.1 4.5 9.05 13.7 9.25 13.25 Z"/>
</g>

<g id="edaddrill_btn_0_Layer0_0_FILL">
<path fill="#CCCCCC" stroke="none" d="
M 27.4 0
L 0 0 0 26.4 27.4 26.4 27.4 0 Z"/>
</g>

<g id="edaddrill_btn_0_Layer0_1_FILL">
<path fill="#666666" stroke="none" d="
M 9.25 13.25
L 9.45 13.7 14.4 4.5 4.1 4.5 9.05 13.7 9.25 13.25 Z"/>
</g>

<g id="aantiguedaddrill_0_Layer0_0_FILL">
<path fill="#CCCCCC" stroke="none" d="
M 27.4 0
L 0 0 0 26.4 27.4 26.4 27.4 0 Z"/>
</g>

<g id="aantiguedaddrill_0_Layer0_1_FILL">
<path fill="#666666" stroke="none" d="
M 9.25 13.25
L 9.45 13.7 14.4 4.5 4.1 4.5 9.05 13.7 9.25 13.25 Z"/>
</g>

<g id="tipocreditodrill_0_Layer0_0_FILL">
<path fill="#CCCCCC" stroke="none" d="
M 27.4 0
L 0 0 0 26.4 27.4 26.4 27.4 0 Z"/>
</g>

<g id="tipocreditodrill_0_Layer0_1_FILL">
<path fill="#666666" stroke="none" d="
M 9.25 13.25
L 9.45 13.7 14.4 4.5 4.1 4.5 9.05 13.7 9.25 13.25 Z"/>
</g>

<g id="Tipo1_0_Layer0_0_FILL">
<path fill="#CCCCCC" stroke="none" d="
M 119.95 19.8
L 119.95 0 0 0 0 19.8 119.95 19.8 Z"/>
</g>

<g id="tipo2_0_Layer0_0_FILL">
<path fill="#CCCCCC" stroke="none" d="
M 119.95 19.8
L 119.95 0 0 0 0 19.8 119.95 19.8 Z"/>
</g>

<g id="recompra_btn_0_Layer0_0_FILL">
<path fill="#CCCCCC" stroke="none" d="
M 119.95 19.8
L 119.95 0 0 0 0 19.8 119.95 19.8 Z"/>
</g>

<g id="nuevo_btn_0_Layer0_0_FILL">
<path fill="#CCCCCC" stroke="none" d="
M 119.95 19.8
L 119.95 0 0 0 0 19.8 119.95 19.8 Z"/>
</g>

<g id="menos_de_1_a_o_0_Layer0_0_FILL">
<path fill="#CCCCCC" stroke="none" d="
M 119.95 19.8
L 119.95 0 0 0 0 19.8 119.95 19.8 Z"/>
</g>

<g id="de1a2_0_Layer0_0_FILL">
<path fill="#CCCCCC" stroke="none" d="
M 119.95 19.8
L 119.95 0 0 0 0 19.8 119.95 19.8 Z"/>
</g>

<g id="de2a3_0_Layer0_0_FILL">
<path fill="#CCCCCC" stroke="none" d="
M 119.95 19.8
L 119.95 0 0 0 0 19.8 119.95 19.8 Z"/>
</g>

<g id="de3a5_0_Layer0_0_FILL">
<path fill="#CCCCCC" stroke="none" d="
M 119.95 19.8
L 119.95 0 0 0 0 19.8 119.95 19.8 Z"/>
</g>

<g id="de5a40_0_Layer0_0_FILL">
<path fill="#CCCCCC" stroke="none" d="
M 119.95 19.8
L 119.95 0 0 0 0 19.8 119.95 19.8 Z"/>
</g>

<g id="masde40_0_Layer0_0_FILL">
<path fill="#CCCCCC" stroke="none" d="
M 119.95 19.8
L 119.95 0 0 0 0 19.8 119.95 19.8 Z"/>
</g>

<g id="FL_18a24_btn_0_Layer0_0_FILL">
<path fill="#CCCCCC" stroke="none" d="
M 119.95 19.8
L 119.95 0 0 0 0 19.8 119.95 19.8 Z"/>
</g>

<g id="FL_25a35_btn_0_Layer0_0_FILL">
<path fill="#CCCCCC" stroke="none" d="
M 119.95 19.8
L 119.95 0 0 0 0 19.8 119.95 19.8 Z"/>
</g>

<g id="FL_36a45_btn_0_Layer0_0_FILL">
<path fill="#CCCCCC" stroke="none" d="
M 119.95 19.8
L 119.95 0 0 0 0 19.8 119.95 19.8 Z"/>
</g>

<g id="mas46_btn_0_Layer0_0_FILL">
<path fill="#CCCCCC" stroke="none" d="
M 119.95 19.8
L 119.95 0 0 0 0 19.8 119.95 19.8 Z"/>
</g>

<path id="Layer1_5_1_STROKES" stroke="#999999" stroke-width="1" stroke-linejoin="round" stroke-linecap="round" fill="none" d="
M 521.6 602.9
L 724.55 602.9 724.55 631.4 521.6 631.4 521.6 602.9 Z"/>

<path id="Layer1_31_1_STROKES" stroke="#999999" stroke-width="1" stroke-linejoin="round" stroke-linecap="round" fill="none" d="
M 521.6 602.9
L 724.55 602.9 724.55 631.4 521.6 631.4 521.6 602.9 Z"/>

<path id="Layer1_32_1_STROKES" stroke="#999999" stroke-width="1" stroke-linejoin="round" stroke-linecap="round" fill="none" d="
M 521.6 602.9
L 724.55 602.9 724.55 631.4 521.6 631.4 521.6 602.9 Z"/>

<path id="Layer1_33_1_STROKES" stroke="#999999" stroke-width="1" stroke-linejoin="round" stroke-linecap="round" fill="none" d="
M 521.6 602.9
L 724.55 602.9 724.55 631.4 521.6 631.4 521.6 602.9 Z"/>
</defs>

<g id="calculotasa_btn" transform="matrix( 1.5, 0, 0, 1.5, 458.2,825.25) ">
<g transform="matrix( 1, 0, 0, 1, -69.4,-297.35) ">
<use xlink:href="#calculotasa_0_Layer0_0_FILL"/>
</g>

<g transform="matrix( 1, 0, 0, 1, 51.9,3.5) ">
<clipPath id="Mask_Mask_1">
<rect x="-39.6" y="-2" width="103.85" height="19.6" fill="#FFFFFF" stroke="none"/>
</clipPath>

<text clip-path="url(#Mask_Mask_1)" writing-mode="lr"><tspan x="-32.65" y="12.65" baseline-shift="0%" font-family="Arial" font-size="14" fill="#000000" xml:space="preserve">Calcular Tasa:</tspan></text>
</g>
</g>

<g id="tasa" transform="matrix( 1, 0, 0, 1, 444.1,870.4) ">
<clipPath id="Mask_Mask_2">
<rect x="23.8" y="-2" width="167" height="57.55" fill="#FFFFFF" stroke="none"/>
</clipPath>

<text clip-path="url(#Mask_Mask_2)" writing-mode="lr"/>
</g>

<g id="tipo_credito" transform="matrix( 1, 0, 0, 1, 523.6,674.7) ">
<clipPath id="Mask_Mask_3">
<rect x="-2" y="-2" width="172.85" height="28" fill="#FFFFFF" stroke="none"/>
</clipPath>

<text clip-path="url(#Mask_Mask_3)" writing-mode="lr"/>
</g>

<g id="antiguedad" transform="matrix( 1, 0, 0, 1, 523.55,718.8) ">
<clipPath id="Mask_Mask_4">
<rect x="-2" y="-2" width="172.9" height="28" fill="#FFFFFF" stroke="none"/>
</clipPath>

<text clip-path="url(#Mask_Mask_4)" writing-mode="lr"/>
</g>

<g id="edad" transform="matrix( 1, 0, 0, 1, 523.55,762.9) ">
<clipPath id="Mask_Mask_5">
<rect x="-2" y="-2" width="172.9" height="28" fill="#FFFFFF" stroke="none"/>
</clipPath>

<text clip-path="url(#Mask_Mask_5)" writing-mode="lr"/>
</g>

<g transform="matrix( 1, 0, 0, 1, 0,21.5) ">
<use xlink:href="#Layer1_5_1_STROKES"/>
</g>

<g id="empresa_btn" transform="matrix( 1, 0, 0, 1, 696,625.6) ">
<g transform="matrix( 1, 0, 0, 1, 0,0) ">
<use xlink:href="#empresadrill_btn_0_Layer0_0_FILL"/>
</g>

<g transform="matrix( 2, 0, 0, 2, -4.75,-4.6) ">
<use xlink:href="#empresadrill_btn_0_Layer0_1_FILL"/>
</g>
</g>

<g id="edad_btn" transform="matrix( 1, 0, 0, 1, 696,758.5) ">
<g transform="matrix( 1, 0, 0, 1, 0,0) ">
<use xlink:href="#edaddrill_btn_0_Layer0_0_FILL"/>
</g>

<g transform="matrix( 2, 0, 0, 2, -4.75,-4.6) ">
<use xlink:href="#edaddrill_btn_0_Layer0_1_FILL"/>
</g>
</g>

<g id="antiguedad_btn" transform="matrix( 1, 0, 0, 1, 696,714) ">
<g transform="matrix( 1, 0, 0, 1, 0,0) ">
<use xlink:href="#aantiguedaddrill_0_Layer0_0_FILL"/>
</g>

<g transform="matrix( 2, 0, 0, 2, -4.75,-4.6) ">
<use xlink:href="#aantiguedaddrill_0_Layer0_1_FILL"/>
</g>
</g>

<g id="tipocredito_btn" transform="matrix( 1, 0, 0, 1, 696,669.4) ">
<g transform="matrix( 1, 0, 0, 1, 0,0) ">
<use xlink:href="#tipocreditodrill_0_Layer0_0_FILL"/>
</g>

<g transform="matrix( 2, 0, 0, 2, -4.75,-4.6) ">
<use xlink:href="#tipocreditodrill_0_Layer0_1_FILL"/>
</g>
</g>

<g transform="matrix( 1, 0, 0, 1, 417.65,671.8) ">
<clipPath id="Mask_Mask_6">
<rect x="-100.6" y="-2" width="202.6" height="26" fill="#FFFFFF" stroke="none"/>
</clipPath>

<text clip-path="url(#Mask_Mask_6)" writing-mode="lr"><tspan x="-49.85" y="16.15" baseline-shift="0%" font-family="Acumin Pro" font-size="22" fill="#000000" xml:space="preserve">Tipo de crédito:</tspan></text>
</g>

<g transform="matrix( 1, 0, 0, 1, 417.65,628.6) ">
<clipPath id="Mask_Mask_7">
<rect x="-107.6" y="-2" width="209.6" height="26" fill="#FFFFFF" stroke="none"/>
</clipPath>

<text clip-path="url(#Mask_Mask_7)" writing-mode="lr"><tspan x="9.1" y="16.15" baseline-shift="0%" font-family="Acumin Pro" font-size="22" fill="#000000" xml:space="preserve">Empresa:</tspan></text>
</g>

<g transform="matrix( 1, 0, 0, 1, 417.65,717.6) ">
<clipPath id="Mask_Mask_8">
<rect x="-109.6" y="-2" width="211.6" height="26" fill="#FFFFFF" stroke="none"/>
</clipPath>

<text clip-path="url(#Mask_Mask_8)" writing-mode="lr"><tspan x="-17.55" y="16.15" baseline-shift="0%" font-family="Acumin Pro" font-size="22" fill="#000000" xml:space="preserve">Antigüedad:</tspan></text>
</g>

<g transform="matrix( 1, 0, 0, 1, 417.65,762.2) ">
<clipPath id="Mask_Mask_9">
<rect x="-92.6" y="-2" width="194.6" height="26" fill="#FFFFFF" stroke="none"/>
</clipPath>

<text clip-path="url(#Mask_Mask_9)" writing-mode="lr"><tspan x="44.7" y="16.15" baseline-shift="0%" font-family="Acumin Pro" font-size="22" fill="#000000" xml:space="preserve">Edad:</tspan></text>
</g>

<g id="empresa_colaborador" transform="matrix( 1, 0, 0, 1, 523.9,631) ">
<clipPath id="Mask_Mask_10">
<rect x="-2" y="-2" width="171.55" height="28" fill="#FFFFFF" stroke="none"/>
</clipPath>

<text clip-path="url(#Mask_Mask_10)" writing-mode="lr"/>
</g>

<g id="bimbo_btn" transform="matrix( 1.5, 0, 0, 1.5, 724.55,651.8) ">
<g transform="matrix( 1, 0, 0, 1, 0,0) ">
<use xlink:href="#Tipo1_0_Layer0_0_FILL"/>
</g>

<g transform="matrix( 1, 0, 0, 1, 2.65,3) ">
<clipPath id="Mask_Mask_11">
<rect x="-2" y="-2" width="104" height="18" fill="#FFFFFF" stroke="none"/>
</clipPath>

<text clip-path="url(#Mask_Mask_11)" writing-mode="lr"><tspan x="0" y="10.5" baseline-shift="0%" font-family="Calibri" font-size="14" fill="#000000" xml:space="preserve">Bimbo</tspan></text>
</g>
</g>

<g id="alianzas_btn" transform="matrix( 1.5, 0, 0, 1.5, 724.55,623.6) ">
<g transform="matrix( 1, 0, 0, 1, 0,0) ">
<use xlink:href="#tipo2_0_Layer0_0_FILL"/>
</g>

<g transform="matrix( 1, 0, 0, 1, 3.2,4.1) ">
<clipPath id="Mask_Mask_12">
<rect x="-2" y="-2" width="104" height="17" fill="#FFFFFF" stroke="none"/>
</clipPath>

<text clip-path="url(#Mask_Mask_12)" writing-mode="lr"><tspan x="0" y="9.75" baseline-shift="0%" font-family="Calibri" font-size="13" fill="#000000" xml:space="preserve">Alianzas</tspan></text>
</g>
</g>

<g id="recompra_btn" transform="matrix( 1.5, 0, 0, 1.5, 724.55,696.6) ">
<g transform="matrix( 1, 0, 0, 1, 0,0) ">
<use xlink:href="#recompra_btn_0_Layer0_0_FILL"/>
</g>

<g transform="matrix( 1, 0, 0, 1, 2,5) ">
<clipPath id="Mask_Mask_13">
<rect x="-2" y="-2" width="104" height="16" fill="#FFFFFF" stroke="none"/>
</clipPath>

<text clip-path="url(#Mask_Mask_13)" writing-mode="lr"><tspan x="0" y="8.8" baseline-shift="0%" font-family="Acumin Pro" font-size="12" fill="#000000" xml:space="preserve">Recompra</tspan></text>
</g>
</g>

<g id="nuevo_btn" transform="matrix( 1.5, 0, 0, 1.5, 724.55,668.4) ">
<g transform="matrix( 1, 0, 0, 1, 0,0) ">
<use xlink:href="#nuevo_btn_0_Layer0_0_FILL"/>
</g>

<g transform="matrix( 1, 0, 0, 1, 2,5) ">
<clipPath id="Mask_Mask_14">
<rect x="-2" y="-2" width="104" height="16" fill="#FFFFFF" stroke="none"/>
</clipPath>

<text clip-path="url(#Mask_Mask_14)" writing-mode="lr"><tspan x="0" y="8.8" baseline-shift="0%" font-family="Acumin Pro" font-size="12" fill="#000000" xml:space="preserve">Nuevo</tspan></text>
</g>
</g>

<g id="menos1_btn" transform="matrix( 1.5, 0, 0, 1.5, 724.55,712.8) ">
<g transform="matrix( 1, 0, 0, 1, 0,0) ">
<use xlink:href="#menos_de_1_a_o_0_Layer0_0_FILL"/>
</g>

<g transform="matrix( 1, 0, 0, 1, 2,4.8) ">
<clipPath id="Mask_Mask_15">
<rect x="-2" y="-2" width="104" height="16" fill="#FFFFFF" stroke="none"/>
</clipPath>

<text clip-path="url(#Mask_Mask_15)" writing-mode="lr"><tspan x="0" y="8.8" baseline-shift="0%" font-family="Acumin Pro" font-size="12" fill="#000000" xml:space="preserve">menos de 1 año</tspan></text>
</g>
</g>

<g id="de1a2_btn" transform="matrix( 1.5, 0, 0, 1.5, 724.55,741) ">
<g transform="matrix( 1, 0, 0, 1, 0,0) ">
<use xlink:href="#de1a2_0_Layer0_0_FILL"/>
</g>

<g transform="matrix( 1, 0, 0, 1, 2,4.8) ">
<clipPath id="Mask_Mask_16">
<rect x="-2" y="-2" width="104" height="16" fill="#FFFFFF" stroke="none"/>
</clipPath>

<text clip-path="url(#Mask_Mask_16)" writing-mode="lr"><tspan x="0" y="8.8" baseline-shift="0%" font-family="Acumin Pro" font-size="12" fill="#000000" xml:space="preserve">de 1 a 2 años</tspan></text>
</g>
</g>

<g id="de2a3_btn" transform="matrix( 1.5, 0, 0, 1.5, 724.55,769.2) ">
<g transform="matrix( 1, 0, 0, 1, 0,0) ">
<use xlink:href="#de2a3_0_Layer0_0_FILL"/>
</g>

<g transform="matrix( 1, 0, 0, 1, 2,4.8) ">
<clipPath id="Mask_Mask_17">
<rect x="-2" y="-2" width="104" height="16" fill="#FFFFFF" stroke="none"/>
</clipPath>

<text clip-path="url(#Mask_Mask_17)" writing-mode="lr"><tspan x="0" y="8.8" baseline-shift="0%" font-family="Acumin Pro" font-size="12" fill="#000000" xml:space="preserve">de 2 a 3 años</tspan></text>
</g>
</g>

<g id="de3a5_btn" transform="matrix( 1.5, 0, 0, 1.5, 724.55,797.4) ">
<g transform="matrix( 1, 0, 0, 1, 0,0) ">
<use xlink:href="#de3a5_0_Layer0_0_FILL"/>
</g>

<g transform="matrix( 1, 0, 0, 1, 2,4.8) ">
<clipPath id="Mask_Mask_18">
<rect x="-2" y="-2" width="104" height="16" fill="#FFFFFF" stroke="none"/>
</clipPath>

<text clip-path="url(#Mask_Mask_18)" writing-mode="lr"><tspan x="0" y="8.8" baseline-shift="0%" font-family="Acumin Pro" font-size="12" fill="#000000" xml:space="preserve">de 3 a 5 años</tspan></text>
</g>
</g>

<g id="de5a40_btn" transform="matrix( 1.5, 0, 0, 1.5, 724.55,825.6) ">
<g transform="matrix( 1, 0, 0, 1, 0,0) ">
<use xlink:href="#de5a40_0_Layer0_0_FILL"/>
</g>

<g transform="matrix( 1, 0, 0, 1, 2,4.8) ">
<clipPath id="Mask_Mask_19">
<rect x="-2" y="-2" width="104" height="16" fill="#FFFFFF" stroke="none"/>
</clipPath>

<text clip-path="url(#Mask_Mask_19)" writing-mode="lr"><tspan x="0" y="8.8" baseline-shift="0%" font-family="Acumin Pro" font-size="12" fill="#000000" xml:space="preserve">de 5 a 40 años</tspan></text>
</g>
</g>

<g id="masde40_btn" transform="matrix( 1.5, 0, 0, 1.5, 724.55,853.8) ">
<g transform="matrix( 1, 0, 0, 1, 0,0) ">
<use xlink:href="#masde40_0_Layer0_0_FILL"/>
</g>

<g transform="matrix( 1, 0, 0, 1, 2,4.8) ">
<clipPath id="Mask_Mask_20">
<rect x="-2" y="-2" width="104" height="16" fill="#FFFFFF" stroke="none"/>
</clipPath>

<text clip-path="url(#Mask_Mask_20)" writing-mode="lr"><tspan x="0" y="8.8" baseline-shift="0%" font-family="Acumin Pro" font-size="12" fill="#000000" xml:space="preserve">más de 40 años</tspan></text>
</g>
</g>

<g id="de18a24_btn" transform="matrix( 1.5, 0, 0, 1.5, 724.55,756.9) ">
<g transform="matrix( 1, 0, 0, 1, 0,0) ">
<use xlink:href="#FL_18a24_btn_0_Layer0_0_FILL"/>
</g>

<g transform="matrix( 1, 0, 0, 1, 2,5) ">
<clipPath id="Mask_Mask_21">
<rect x="-2" y="-2" width="104" height="16" fill="#FFFFFF" stroke="none"/>
</clipPath>

<text clip-path="url(#Mask_Mask_21)" writing-mode="lr"><tspan x="0" y="8.8" baseline-shift="0%" font-family="Acumin Pro" font-size="12" fill="#000000" xml:space="preserve">18 a 25 años</tspan></text>
</g>
</g>

<g id="de25a35_btn" transform="matrix( 1.5, 0, 0, 1.5, 724.55,785.1) ">
<g transform="matrix( 1, 0, 0, 1, 0,0) ">
<use xlink:href="#FL_25a35_btn_0_Layer0_0_FILL"/>
</g>

<g transform="matrix( 1, 0, 0, 1, 2,5) ">
<clipPath id="Mask_Mask_22">
<rect x="-2" y="-2" width="104" height="16" fill="#FFFFFF" stroke="none"/>
</clipPath>

<text clip-path="url(#Mask_Mask_22)" writing-mode="lr"><tspan x="0" y="8.8" baseline-shift="0%" font-family="Acumin Pro" font-size="12" fill="#000000" xml:space="preserve">26 a 35 años</tspan></text>
</g>
</g>

<g id="de36a45_btn" transform="matrix( 1.5, 0, 0, 1.5, 724.55,813.3) ">
<g transform="matrix( 1, 0, 0, 1, 0,0) ">
<use xlink:href="#FL_36a45_btn_0_Layer0_0_FILL"/>
</g>

<g transform="matrix( 1, 0, 0, 1, 2,5) ">
<clipPath id="Mask_Mask_23">
<rect x="-2" y="-2" width="104" height="16" fill="#FFFFFF" stroke="none"/>
</clipPath>

<text clip-path="url(#Mask_Mask_23)" writing-mode="lr"><tspan x="0" y="8.8" baseline-shift="0%" font-family="Acumin Pro" font-size="12" fill="#000000" xml:space="preserve">36 a 45 años</tspan></text>
</g>
</g>

<g id="mas46_btn" transform="matrix( 1.5, 0, 0, 1.5, 724.55,841.5) ">
<g transform="matrix( 1, 0, 0, 1, 0,0) ">
<use xlink:href="#mas46_btn_0_Layer0_0_FILL"/>
</g>

<g transform="matrix( 1, 0, 0, 1, 2,5) ">
<clipPath id="Mask_Mask_24">
<rect x="-2" y="-2" width="104" height="16" fill="#FFFFFF" stroke="none"/>
</clipPath>

<text clip-path="url(#Mask_Mask_24)" writing-mode="lr"><tspan x="0" y="8.8" baseline-shift="0%" font-family="Acumin Pro" font-size="12" fill="#000000" xml:space="preserve">46 años o más</tspan></text>
</g>
</g>

<g transform="matrix( 1, 0, 0, 1, 284.05,500) ">
<clipPath id="Mask_Mask_25">
<rect x="-2" y="-2" width="526.2" height="22" fill="#FFFFFF" stroke="none"/>
</clipPath>

<text clip-path="url(#Mask_Mask_25)" writing-mode="lr"><tspan x="0" y="5.9" baseline-shift="0%" font-family="Acumin Pro" font-size="8" fill="#000000" xml:space="preserve">Este simulador es solo de uso interno de asesores Crédito Nómina Fincomún, y no para uso de cara al cliente. Oferta para colaboradores de empresas</tspan><tspan x="0" y="15.9" baseline-shift="0%" font-family="Acumin Pro" font-size="8" fill="#000000" xml:space="preserve">que tengan celebrado un Contrato de Alianza con Fincomún. Sujeto a aprobación de crédito. Aplican condiciones.</tspan></text>
</g>

<g transform="matrix( 1, 0, 0, 1, 0,0) ">
<use xlink:href="#Banner_landing_1_png"/>
</g>

<g transform="matrix( 1, 0, 0, 1, 0,65.5) ">
<use xlink:href="#Layer1_31_1_STROKES"/>
</g>

<g transform="matrix( 1, 0, 0, 1, 0,110) ">
<use xlink:href="#Layer1_32_1_STROKES"/>
</g>

<g transform="matrix( 1, 0, 0, 1, -0.15,154.5) ">
<use xlink:href="#Layer1_33_1_STROKES"/>
</g>
</svg>
